

 ***************************** TPB IS BENEDICTION TO ME ***************************
 *                                                                                *
 *       *            *            *            *            *            *       *
 *      ***	     ***          ***          ***	    ***          ***      *
 *     *****        *****        *****        *****        *****        *****     *
 *    *******      *******      *******      *******      *******      *******    *
 *   *********    *********    *********    *********    *********    *********   *
 *  *** TPB ***  *** TPB ***  *** TPB ***  *** TPB ***  *** TPB ***  *** TPB ***  *
 *   *********    *********    *********    *********    *********    *********   *
 *    *******      *******      *******      *******      *******      *******    *
 *     *****        *****        *****        *****        *****        *****     *
 *      ***          ***          ***	       ***          ***          ***      *
 *       *            *            *            *            *            *       *
 *	                                                                          *
 ***************************** TPB IS BENEDICTION TO ME ***************************



 Screen Link :---


        http://www.shotpix.com/images/20610083287390679181.png
  http://www.shotpix.com/images/78020916313061983385.png
  http://www.shotpix.com/images/87892104235554129618.png
  http://www.shotpix.com/images/30865593069863412625.png
  http://www.shotpix.com/images/94448340917020425304.jpg
       http://www.shotpix.com/images/24782972327744762935.jpg
  http://www.shotpix.com/images/67095159606192547693.jpg
  http://www.shotpix.com/images/04887773574392432808.jpg
  http://www.shotpix.com/images/23384461120325238805.jpg



 Torrent Status :---


        http://torrent-stats.info/d878/1517167f8.png



 General Info :---


 Format                           : Matroska
 File size                        : 1.29 GiB
 Duration                         : 2h 40mn
 Overall bit rate                 : 1 153 Kbps

 Video
 ID                               : 1
 Format                           : AVC
 Format/Info                      : Advanced Video Codec
 Format profile                   : High@L4.0
 Format settings, CABAC           : Yes
 Format settings, ReFrames        : 3 frames
 Codec ID                         : V_MPEG4/ISO/AVC
 Duration                         : 2h 40mn
 Bit rate mode                    : Variable
 Bit rate                         : 1 024 Kbps
 Maximum bit rate                 : 25.0 Mbps
 Width                            : 640 pixels
 Height                           : 480 pixels
 Display aspect ratio             : 4:3
 Frame rate                       : 23.976 fps
 Color space                      : YUV
 Chroma subsampling               : 4:2:0
 Bit depth                        : 8 bits
 Scan type                        : Progressive
 Bits/(Pixel*Frame)               : 0.139
 Stream size                      : 1.12 GiB (87%)

 Audio
 ID                               : 2
 Format                           : MPEG Audio
 Format version                   : Version 1
 Format profile                   : Layer 2
 Codec ID                         : A_MPEG/L2
 Codec ID/Hint                    : MP2
 Duration                         : 2h 40mn
 Bit rate mode                    : Constant
 Bit rate                         : 128 Kbps
 Channel(s)                       : 2 channels
 Sampling rate                    : 44.1 KHz
 Compression mode                 : Lossy
 Stream size                      : 147 MiB (11%)



 ***************************** TPB IS BENEDICTION TO ME ***************************
 *                                                                                *
 *       *            *            *            *            *            *       *
 *      ***	     ***          ***          ***	    ***          ***      *
 *     *****        *****        *****        *****        *****        *****     *
 *    *******      *******      *******      *******      *******      *******    *
 *   *********    *********    *********    *********    *********    *********   *
 *  *** TPB ***  *** TPB ***  *** TPB ***  *** TPB ***  *** TPB ***  *** TPB ***  *
 *   *********    *********    *********    *********    *********    *********   *
 *    *******      *******      *******      *******      *******      *******    *
 *     *****        *****        *****        *****        *****        *****     *
 *      ***          ***          ***	       ***          ***          ***      *
 *       *            *            *            *            *            *       *
 *	                                                                          *
 ***************************** TPB IS BENEDICTION TO ME ***************************

										